<svg width="358" height="130" viewBox="0 0 358 130" fill="none" xmlns="http://www.w3.org/2000/svg">
<g clip-path="url(#clip0_16860_31)">
<path d="M152.967 129.697L0 129.71L21.4411 85.5698L21.4541 25.2675L98.009 0L145.288 25.2675L152.967 129.697Z" fill="#C1C1C1"/>
<path d="M152.967 129.697L0 129.71L21.4411 85.5698L21.4541 25.2675L98.009 0L145.288 25.2675L152.967 129.697Z" fill="black"/>
<path d="M152.967 129.697L0 129.71L21.4411 85.5698L21.4541 25.2675L98.009 0L145.288 25.2675L152.967 129.697Z" fill="white"/>
<path d="M170.505 63.2466C169.485 62.7426 168.614 61.9829 167.975 61.0415C167.331 60.0108 166.99 58.8197 166.99 57.6042C166.99 56.3887 167.331 55.1976 167.975 54.1669C168.614 53.2255 169.485 52.4657 170.505 51.9618C171.487 51.4666 172.57 51.2047 173.67 51.1965H174.967V52.7401H173.67C172.883 52.7506 172.109 52.9321 171.4 53.2719C170.632 53.6409 169.975 54.2043 169.493 54.9062C168.977 55.7137 168.702 56.6522 168.702 57.6107C168.702 58.5692 168.977 59.5076 169.493 60.3151C169.975 61.027 170.644 61.5924 171.426 61.9495C172.135 62.2856 172.91 62.4626 173.696 62.4683H174.993V64.0119H173.696C172.596 64.0037 171.513 63.7418 170.531 63.2466M174.279 49.3027H175.978V65.8538H174.331L174.279 49.3027ZM175.265 62.4553H176.562C177.352 62.4499 178.131 62.2728 178.845 61.9365C179.625 61.5761 180.293 61.0114 180.778 60.3022C181.287 59.4919 181.557 58.5545 181.557 57.5977C181.557 56.6409 181.287 55.7035 180.778 54.8932C180.285 54.1907 179.62 53.6277 178.845 53.2589C178.131 52.9189 177.353 52.7374 176.562 52.7271H175.265V51.1965H176.562C177.662 51.2033 178.746 51.4652 179.727 51.9618C180.773 52.4527 181.668 53.2139 182.321 54.1669C182.965 55.1976 183.307 56.3887 183.307 57.6042C183.307 58.8197 182.965 60.0108 182.321 61.0415C181.668 61.9944 180.773 62.7557 179.727 63.2466C178.746 63.7431 177.662 64.0051 176.562 64.0119H175.265V62.4553ZM189.663 64.3751C188.547 63.7242 187.628 62.7828 187.004 61.6511C186.368 60.4527 186.035 59.1166 186.035 57.7598C186.035 56.4031 186.368 55.067 187.004 53.8685C187.628 52.7369 188.547 51.7955 189.663 51.1446C190.504 50.6463 191.436 50.3212 192.404 50.1886C193.373 50.0559 194.358 50.1183 195.302 50.3721C196.246 50.626 197.13 51.066 197.901 51.6665C198.672 52.267 199.316 53.0157 199.793 53.8685C200.429 55.067 200.762 56.4031 200.762 57.7598C200.762 59.1166 200.429 60.4527 199.793 61.6511C198.808 63.3527 197.189 64.5948 195.291 65.1053C193.392 65.6158 191.368 65.3532 189.663 64.3751ZM196.278 62.9482C197.139 62.4395 197.844 61.7036 198.315 60.821C198.801 59.8715 199.054 58.82 199.054 57.7533C199.054 56.6866 198.801 55.6352 198.315 54.6857C197.848 53.8003 197.142 53.0634 196.278 52.5585C195.63 52.1751 194.912 51.9258 194.167 51.8254C193.421 51.725 192.662 51.7755 191.936 51.9739C191.21 52.1723 190.532 52.5146 189.941 52.9805C189.349 53.4463 188.858 54.0262 188.495 54.6857C188.001 55.6327 187.743 56.6851 187.743 57.7533C187.743 58.8216 188.001 59.874 188.495 60.821C188.975 61.7014 189.683 62.4362 190.545 62.9482C191.419 63.45 192.41 63.7141 193.418 63.7141C194.426 63.7141 195.417 63.45 196.291 62.9482M211.428 56.8778C211.718 56.6099 211.946 56.2819 212.097 55.9168C212.247 55.5516 212.315 55.158 212.297 54.7635C212.318 54.3746 212.25 53.986 212.099 53.6267C211.949 53.2674 211.72 52.9467 211.428 52.6882C210.712 52.121 209.81 51.8433 208.899 51.9099H205.812L206.045 51.6635V65.1922H204.398V50.3404H208.951C209.87 50.3204 210.782 50.5019 211.623 50.8722C212.336 51.1895 212.937 51.7137 213.348 52.3769C213.771 53.1043 213.982 53.9354 213.958 54.7765C213.979 55.6271 213.763 56.4669 213.335 57.2021C212.921 57.8788 212.31 58.4129 211.584 58.7327C210.764 59.0801 209.88 59.2524 208.99 59.2385H205.812V57.682H208.912C209.824 57.745 210.727 57.4626 211.441 56.8908M215.942 50.4053H217.784L223.556 61.4825L222.363 62.624L215.942 50.4053ZM218.381 63.5708H219.924C220.393 63.5555 220.845 63.3971 221.221 63.1169C221.576 62.842 221.853 62.48 222.026 62.0662L222.48 60.9637L222.648 60.7432L227.032 50.3664H228.848L223.66 62.3905C223.355 63.2479 222.815 64.0027 222.103 64.5696C221.425 65.0208 220.622 65.2477 219.808 65.2182H218.42L218.381 63.5708ZM223.426 60.8599H222.363V59.926H223.426V60.8599ZM231.754 50.3404H233.401L239.887 61.1193H238.239L244.569 50.3404H246.165V65.1922H244.504V51.1576H245.801L239.692 61.703H238.395L232.104 51.1576H233.479V65.1922H231.754V50.3404ZM234.465 53.6869H232.688V52.5714H234.465V53.6869ZM239.9 60.6524H238.123V59.5628H239.9V60.6524ZM245.088 53.6869H243.428V52.5714H245.205L245.088 53.6869ZM167.781 74.5314H169.493V89.3702H167.846L167.781 74.5314ZM169.078 80.8872H178.158V82.4696H169.078V80.8872ZM179.455 89.3702H177.807V74.5314H179.455V89.3702ZM185.318 87.7877H194.138V89.3702H184.163V74.5314H193.943V76.1138H185.577L185.81 75.8544V88.0472L185.318 87.7877ZM191.803 82.5993H185.447V81.0428H192.037L191.803 82.5993ZM210.326 92.3146H208.743V89.0978L208.99 89.3572H197.238L197.484 89.0978V92.3146H195.902V87.7748H210.326V92.3146ZM198.133 86.6852C198.445 86.1116 198.655 85.4885 198.756 84.8433C198.893 83.9551 198.953 83.0569 198.937 82.1583V74.5184H208.419V88.2158H206.772V75.8285L207.031 76.0879H199.858L200.507 75.1021V82.4826C200.544 83.6847 200.409 84.886 200.105 86.0496C199.93 86.8067 199.499 87.4802 198.885 87.9564H196.979C197.453 87.6126 197.847 87.1701 198.133 86.6593M221.909 81.8859C222.437 82.1825 222.883 82.606 223.206 83.1182C223.568 83.7057 223.749 84.3871 223.725 85.0768C223.752 85.8971 223.53 86.7064 223.089 87.3986C222.643 88.0454 222.016 88.5462 221.286 88.8384C220.439 89.1865 219.529 89.3544 218.614 89.3313H213.607V74.5314H218.381C219.212 74.5154 220.037 74.6699 220.806 74.9853C221.454 75.2567 222.012 75.7065 222.415 76.2824C222.798 76.8814 222.993 77.582 222.972 78.2929C222.997 78.8954 222.853 79.4928 222.557 80.0181C222.308 80.4705 221.94 80.847 221.494 81.1077C221.048 81.369 220.561 81.5532 220.054 81.6524L220.287 81.393C220.848 81.4519 221.391 81.624 221.883 81.8989M220.469 76.7105C219.81 76.2605 219.021 76.0415 218.225 76.0879H215.255V80.8742H218.225C219.022 80.9266 219.813 80.7071 220.469 80.2516C220.738 80.0358 220.951 79.7577 221.089 79.4413C221.227 79.125 221.286 78.7798 221.26 78.4356C221.277 78.1056 221.214 77.7763 221.076 77.4759C220.939 77.1756 220.73 76.9129 220.469 76.7105ZM221.079 87.0873C221.388 86.855 221.635 86.55 221.798 86.1992C221.961 85.8485 222.035 85.4629 222.013 85.0768C222.034 84.7 221.96 84.3238 221.797 83.9835C221.633 83.6432 221.386 83.35 221.079 83.1311C220.336 82.6481 219.46 82.412 218.575 82.4566H215.255V87.7748H218.783C219.669 87.8156 220.545 87.5749 221.286 87.0873M221.092 81.9767H220.08V81.0817H221.195L221.092 81.9767ZM229.043 87.1651H228.745L237.643 74.5703H239.264V89.4091H237.604V76.8143H237.915L229.004 89.4091H227.396V74.5314H229.16L229.043 87.1651ZM229.99 87.6191H228.213V86.5036H229.99V87.6191ZM238.447 77.4758H236.683V76.3473H238.447V77.4758ZM244.167 89.4091H242.131L248.616 81.6265L242.286 74.5314H244.362L250.743 81.6784L244.167 89.4091ZM253.597 82.4826H249.394V80.939H253.649L253.597 82.4826ZM250.73 74.5703H252.507V89.4091H250.847L250.73 74.5703ZM258.811 74.5703H260.913L254.557 81.6265L261.042 89.4091H258.993L252.507 81.7303L258.811 74.5703ZM265.504 87.1651H265.206L274.104 74.5703H275.726V89.4091H274.065V76.8143H274.377L265.478 89.3702H263.87V74.5314H265.517L265.504 87.1651ZM266.451 87.6191H264.674V86.5036H266.451V87.6191ZM274.921 77.4758H273.261V76.3473H275.038L274.921 77.4758ZM280.175 74.5703H281.822L288.307 85.3492H286.621L292.951 74.5703H294.559V89.4091H292.886V75.3485H294.261L288.139 85.881H286.842L280.564 75.3485H281.926V89.3702H280.278L280.175 74.5703ZM282.886 77.9038H281.173V76.7883H282.937L282.886 77.9038ZM288.32 84.8822H286.543V83.7927H288.32V84.8822ZM293.509 77.9038H291.732V76.7883H293.509V77.9038ZM301.771 88.6049C300.652 87.9543 299.728 87.0132 299.099 85.881C298.46 84.6836 298.126 83.3471 298.126 81.9897C298.126 80.6323 298.46 79.2958 299.099 78.0984C299.733 76.9581 300.66 76.008 301.784 75.3464C302.909 74.6849 304.19 74.3361 305.494 74.3361C306.799 74.3361 308.079 74.6849 309.204 75.3464C310.328 76.008 311.255 76.9581 311.889 78.0984C312.528 79.2958 312.862 80.6323 312.862 81.9897C312.862 83.3471 312.528 84.6836 311.889 85.881C311.406 86.7269 310.761 87.469 309.99 88.0643C309.219 88.6597 308.338 89.0965 307.397 89.3497C306.457 89.6029 305.475 89.6675 304.51 89.5397C303.544 89.4118 302.614 89.0941 301.771 88.6049ZM308.387 87.1911C309.241 86.6784 309.941 85.9432 310.41 85.0638C310.896 84.112 311.15 83.0585 311.15 81.9897C311.15 80.9209 310.896 79.8674 310.41 78.9156C309.941 78.0362 309.241 77.3009 308.387 76.7883C307.74 76.4013 307.022 76.1491 306.275 76.0467C305.528 75.9444 304.769 75.994 304.042 76.1927C303.315 76.3914 302.636 76.7351 302.045 77.203C301.454 77.6709 300.964 78.2534 300.604 78.9156C300.109 79.8648 299.851 80.9194 299.851 81.9897C299.851 83.06 300.109 84.1146 300.604 85.0638C300.973 85.7168 301.468 86.2903 302.06 86.7511C302.651 87.212 303.329 87.551 304.052 87.7488C304.776 87.9466 305.531 87.9991 306.275 87.9034C307.019 87.8077 307.737 87.5656 308.387 87.1911ZM325.923 76.6456C325.128 76.2155 324.233 76.0009 323.329 76.023C322.302 76.0144 321.29 76.2785 320.398 76.7883C319.508 77.2862 318.776 78.023 318.283 78.9156C317.765 79.8571 317.492 80.9146 317.492 81.9897C317.492 83.0647 317.765 84.1223 318.283 85.0638C318.772 85.9589 319.506 86.6966 320.398 87.1911C321.288 87.7068 322.301 87.9713 323.329 87.9564C324.233 87.9785 325.128 87.7639 325.923 87.3337C326.696 86.8837 327.367 86.2786 327.895 85.5567L329.192 86.5944C328.828 87.1429 328.391 87.6402 327.895 88.0731C327.321 88.5518 326.667 88.9251 325.962 89.1756C324.927 89.5362 323.827 89.6718 322.736 89.5733C321.644 89.4749 320.586 89.1448 319.632 88.6049C318.496 87.9447 317.546 87.0076 316.87 85.881C316.187 84.6979 315.827 83.3558 315.827 81.9897C315.827 80.6236 316.187 79.2815 316.87 78.0984C317.546 76.9717 318.496 76.0346 319.632 75.3745C320.586 74.8346 321.644 74.5045 322.736 74.406C323.827 74.3076 324.927 74.4432 325.962 74.8038C326.667 75.0543 327.321 75.4275 327.895 75.9063C328.392 76.3438 328.828 76.8454 329.192 77.398L327.895 78.4227C327.367 77.7007 326.696 77.0957 325.923 76.6456ZM330.891 74.5703H342.864V76.1527H330.891V74.5703ZM337.714 89.4091H336.054V75.6598H337.714V89.4091ZM347.676 87.1651H347.377L356.276 74.5703H357.897V89.4091H356.237V76.8143H356.561L347.637 89.4091H346.028V74.5314H347.676V87.1651ZM348.623 87.6191H346.846V86.5036H348.623V87.6191ZM357.093 77.4758H355.316V76.3473H357.093V77.4758ZM181.167 116.493H178.573V112.77L179.52 113.561H167.846L168.767 112.77V116.493H166.172V110.967H181.167V116.493ZM168.196 109.916C168.474 109.343 168.662 108.731 168.754 108.1C168.878 107.268 168.935 106.426 168.922 105.584V98.7223H179.403V111.693H176.653V100.564L177.496 101.368H170.349L171.542 100.071V106.181C171.574 107.29 171.452 108.399 171.179 109.475C171.024 110.199 170.614 110.843 170.025 111.291H167.119C167.587 110.959 167.962 110.512 168.209 109.994M193.243 106.103C193.774 106.389 194.221 106.81 194.54 107.322C194.882 107.903 195.053 108.568 195.033 109.242C195.051 110.067 194.825 110.879 194.384 111.577C193.946 112.238 193.324 112.757 192.594 113.068C191.755 113.429 190.848 113.606 189.935 113.587H184.124V98.7223H189.572C190.427 98.7019 191.276 98.8656 192.063 99.2022C192.722 99.4667 193.29 99.9175 193.697 100.499C194.036 101.103 194.19 101.793 194.138 102.484C194.164 103.082 194.02 103.676 193.723 104.196C193.47 104.628 193.114 104.989 192.685 105.247C192.278 105.48 191.842 105.659 191.388 105.779L191.686 105.519C192.227 105.585 192.748 105.762 193.217 106.038M190.752 101.55C190.277 101.211 189.701 101.042 189.118 101.07H186.77V104.728H189.118C189.704 104.763 190.285 104.599 190.765 104.261C190.964 104.091 191.121 103.877 191.222 103.636C191.324 103.395 191.367 103.134 191.349 102.873C191.356 102.625 191.306 102.38 191.203 102.155C191.099 101.93 190.945 101.732 190.752 101.576M191.414 110.591C191.652 110.415 191.843 110.184 191.97 109.917C192.096 109.65 192.155 109.355 192.14 109.06C192.158 108.766 192.1 108.473 191.973 108.208C191.846 107.942 191.654 107.713 191.414 107.543C190.857 107.176 190.199 106.994 189.533 107.024H186.77V111.136H189.546C190.212 111.164 190.868 110.972 191.414 110.591ZM192.244 106.142H191.064V105.143H192.244V106.142ZM200.584 109.955H200.118L207.835 98.7093H210.572V113.548H207.835V102.302H208.328L200.546 113.548H197.835V98.7223H200.546L200.584 109.955ZM201.635 110.228H199.586V108.969H201.596L201.635 110.228ZM208.886 103.236H206.875V101.939H208.886V103.236ZM216.176 113.548H212.881L218.588 105.766L213.076 98.7093H216.344L221.883 105.869L216.176 113.548ZM225.826 107.063H220.391V104.689H225.826V107.063ZM221.805 98.7223H224.542V113.561H221.766L221.805 98.7223ZM229.99 98.7223H233.258L227.759 105.753L233.479 113.535H230.184L224.477 105.83L229.99 98.7223ZM237.669 110.967H246.242V113.561H235.762V98.7223H246.022V101.316H237.669L238.499 100.525V111.758L237.669 110.967ZM244.232 107.296H238.162V104.702H244.232V107.296ZM249.537 98.7223H252.274V113.561H249.537V98.7223ZM251.95 104.637H259.732V107.231H251.95V104.637ZM262.132 113.561H259.395V98.7223H262.132V113.561ZM268.695 109.968H268.228L276.011 98.7223H278.748V113.561H275.855V102.315H276.348L268.566 113.561H265.855V98.7223H268.566L268.695 109.968ZM269.746 110.241H267.735V108.969H269.746V110.241ZM276.997 103.249H274.947V101.952H276.958L276.997 103.249ZM284.416 110.967H292.99V113.561H282.47V98.7223H292.718V101.316H284.351L285.181 100.525V111.758L284.416 110.967ZM290.979 107.296H284.935V104.702H291.005L290.979 107.296Z" fill="black"/>
<path d="M170.505 63.2466C169.485 62.7426 168.614 61.9829 167.975 61.0415C167.331 60.0108 166.99 58.8197 166.99 57.6042C166.99 56.3887 167.331 55.1976 167.975 54.1669C168.614 53.2255 169.485 52.4657 170.505 51.9618C171.487 51.4666 172.57 51.2047 173.67 51.1965H174.967V52.7401H173.67C172.883 52.7506 172.109 52.9321 171.4 53.2719C170.632 53.6409 169.975 54.2043 169.493 54.9062C168.977 55.7137 168.702 56.6522 168.702 57.6107C168.702 58.5692 168.977 59.5076 169.493 60.3151C169.975 61.027 170.644 61.5924 171.426 61.9495C172.135 62.2856 172.91 62.4626 173.696 62.4683H174.993V64.0119H173.696C172.596 64.0037 171.513 63.7418 170.531 63.2466M174.279 49.3027H175.978V65.8538H174.331L174.279 49.3027ZM175.265 62.4553H176.562C177.352 62.4499 178.131 62.2728 178.845 61.9365C179.625 61.5761 180.293 61.0114 180.778 60.3022C181.287 59.4919 181.557 58.5545 181.557 57.5977C181.557 56.6409 181.287 55.7035 180.778 54.8932C180.285 54.1907 179.62 53.6277 178.845 53.2589C178.131 52.9189 177.353 52.7374 176.562 52.7271H175.265V51.1965H176.562C177.662 51.2033 178.746 51.4652 179.727 51.9618C180.773 52.4527 181.668 53.2139 182.321 54.1669C182.965 55.1976 183.307 56.3887 183.307 57.6042C183.307 58.8197 182.965 60.0108 182.321 61.0415C181.668 61.9944 180.773 62.7557 179.727 63.2466C178.746 63.7431 177.662 64.0051 176.562 64.0119H175.265V62.4553ZM189.663 64.3751C188.547 63.7242 187.628 62.7828 187.004 61.6511C186.368 60.4527 186.035 59.1166 186.035 57.7598C186.035 56.4031 186.368 55.067 187.004 53.8685C187.628 52.7369 188.547 51.7955 189.663 51.1446C190.504 50.6463 191.436 50.3212 192.404 50.1886C193.373 50.0559 194.358 50.1183 195.302 50.3721C196.246 50.626 197.13 51.066 197.901 51.6665C198.672 52.267 199.316 53.0157 199.793 53.8685C200.429 55.067 200.762 56.4031 200.762 57.7598C200.762 59.1166 200.429 60.4527 199.793 61.6511C198.808 63.3527 197.189 64.5948 195.291 65.1053C193.392 65.6158 191.368 65.3532 189.663 64.3751ZM196.278 62.9482C197.139 62.4395 197.844 61.7036 198.315 60.821C198.801 59.8715 199.054 58.82 199.054 57.7533C199.054 56.6866 198.801 55.6352 198.315 54.6857C197.848 53.8003 197.142 53.0634 196.278 52.5585C195.63 52.1751 194.912 51.9258 194.167 51.8254C193.421 51.725 192.662 51.7755 191.936 51.9739C191.21 52.1723 190.532 52.5146 189.941 52.9805C189.349 53.4463 188.858 54.0262 188.495 54.6857C188.001 55.6327 187.743 56.6851 187.743 57.7533C187.743 58.8216 188.001 59.874 188.495 60.821C188.975 61.7014 189.683 62.4362 190.545 62.9482C191.419 63.45 192.41 63.7141 193.418 63.7141C194.426 63.7141 195.417 63.45 196.291 62.9482M211.428 56.8778C211.718 56.6099 211.946 56.2819 212.097 55.9168C212.247 55.5516 212.315 55.158 212.297 54.7635C212.318 54.3746 212.25 53.986 212.099 53.6267C211.949 53.2674 211.72 52.9467 211.428 52.6882C210.712 52.121 209.81 51.8433 208.899 51.9099H205.812L206.045 51.6635V65.1922H204.398V50.3404H208.951C209.87 50.3204 210.782 50.5019 211.623 50.8722C212.336 51.1895 212.937 51.7137 213.348 52.3769C213.771 53.1043 213.982 53.9354 213.958 54.7765C213.979 55.6271 213.763 56.4669 213.335 57.2021C212.921 57.8788 212.31 58.4129 211.584 58.7327C210.764 59.0801 209.88 59.2524 208.99 59.2385H205.812V57.682H208.912C209.824 57.745 210.727 57.4626 211.441 56.8908M215.942 50.4053H217.784L223.556 61.4825L222.363 62.624L215.942 50.4053ZM218.381 63.5708H219.924C220.393 63.5555 220.845 63.3971 221.221 63.1169C221.576 62.842 221.853 62.48 222.026 62.0662L222.48 60.9637L222.648 60.7432L227.032 50.3664H228.848L223.66 62.3905C223.355 63.2479 222.815 64.0027 222.103 64.5696C221.425 65.0208 220.622 65.2477 219.808 65.2182H218.42L218.381 63.5708ZM223.426 60.8599H222.363V59.926H223.426V60.8599ZM231.754 50.3404H233.401L239.887 61.1193H238.239L244.569 50.3404H246.165V65.1922H244.504V51.1576H245.801L239.692 61.703H238.395L232.104 51.1576H233.479V65.1922H231.754V50.3404ZM234.465 53.6869H232.688V52.5714H234.465V53.6869ZM239.9 60.6524H238.123V59.5628H239.9V60.6524ZM245.088 53.6869H243.428V52.5714H245.205L245.088 53.6869ZM167.781 74.5314H169.493V89.3702H167.846L167.781 74.5314ZM169.078 80.8872H178.158V82.4696H169.078V80.8872ZM179.455 89.3702H177.807V74.5314H179.455V89.3702ZM185.318 87.7877H194.138V89.3702H184.163V74.5314H193.943V76.1138H185.577L185.81 75.8544V88.0472L185.318 87.7877ZM191.803 82.5993H185.447V81.0428H192.037L191.803 82.5993ZM210.326 92.3146H208.743V89.0978L208.99 89.3572H197.238L197.484 89.0978V92.3146H195.902V87.7748H210.326V92.3146ZM198.133 86.6852C198.445 86.1116 198.655 85.4885 198.756 84.8433C198.893 83.9551 198.953 83.0569 198.937 82.1583V74.5184H208.419V88.2158H206.772V75.8285L207.031 76.0879H199.858L200.507 75.1021V82.4826C200.544 83.6847 200.409 84.886 200.105 86.0496C199.93 86.8067 199.499 87.4802 198.885 87.9564H196.979C197.453 87.6126 197.847 87.1701 198.133 86.6593M221.909 81.8859C222.437 82.1825 222.883 82.606 223.206 83.1182C223.568 83.7057 223.749 84.3871 223.725 85.0768C223.752 85.8971 223.53 86.7064 223.089 87.3986C222.643 88.0454 222.016 88.5462 221.286 88.8384C220.439 89.1865 219.529 89.3544 218.614 89.3313H213.607V74.5314H218.381C219.212 74.5154 220.037 74.6699 220.806 74.9853C221.454 75.2567 222.012 75.7065 222.415 76.2824C222.798 76.8814 222.993 77.582 222.972 78.2929C222.997 78.8954 222.853 79.4928 222.557 80.0181C222.308 80.4705 221.94 80.847 221.494 81.1077C221.048 81.369 220.561 81.5532 220.054 81.6524L220.287 81.393C220.848 81.4519 221.391 81.624 221.883 81.8989M220.469 76.7105C219.81 76.2605 219.021 76.0415 218.225 76.0879H215.255V80.8742H218.225C219.022 80.9266 219.813 80.7071 220.469 80.2516C220.738 80.0358 220.951 79.7577 221.089 79.4413C221.227 79.125 221.286 78.7798 221.26 78.4356C221.277 78.1056 221.214 77.7763 221.076 77.4759C220.939 77.1756 220.73 76.9129 220.469 76.7105ZM221.079 87.0873C221.388 86.855 221.635 86.55 221.798 86.1992C221.961 85.8485 222.035 85.4629 222.013 85.0768C222.034 84.7 221.96 84.3238 221.797 83.9835C221.633 83.6432 221.386 83.35 221.079 83.1311C220.336 82.6481 219.46 82.412 218.575 82.4566H215.255V87.7748H218.783C219.669 87.8156 220.545 87.5749 221.286 87.0873M221.092 81.9767H220.08V81.0817H221.195L221.092 81.9767ZM229.043 87.1651H228.745L237.643 74.5703H239.264V89.4091H237.604V76.8143H237.915L229.004 89.4091H227.396V74.5314H229.16L229.043 87.1651ZM229.99 87.6191H228.213V86.5036H229.99V87.6191ZM238.447 77.4758H236.683V76.3473H238.447V77.4758ZM244.167 89.4091H242.131L248.616 81.6265L242.286 74.5314H244.362L250.743 81.6784L244.167 89.4091ZM253.597 82.4826H249.394V80.939H253.649L253.597 82.4826ZM250.73 74.5703H252.507V89.4091H250.847L250.73 74.5703ZM258.811 74.5703H260.913L254.557 81.6265L261.042 89.4091H258.993L252.507 81.7303L258.811 74.5703ZM265.504 87.1651H265.206L274.104 74.5703H275.726V89.4091H274.065V76.8143H274.377L265.478 89.3702H263.87V74.5314H265.517L265.504 87.1651ZM266.451 87.6191H264.674V86.5036H266.451V87.6191ZM274.921 77.4758H273.261V76.3473H275.038L274.921 77.4758ZM280.175 74.5703H281.822L288.307 85.3492H286.621L292.951 74.5703H294.559V89.4091H292.886V75.3485H294.261L288.139 85.881H286.842L280.564 75.3485H281.926V89.3702H280.278L280.175 74.5703ZM282.886 77.9038H281.173V76.7883H282.937L282.886 77.9038ZM288.32 84.8822H286.543V83.7927H288.32V84.8822ZM293.509 77.9038H291.732V76.7883H293.509V77.9038ZM301.771 88.6049C300.652 87.9543 299.728 87.0132 299.099 85.881C298.46 84.6836 298.126 83.3471 298.126 81.9897C298.126 80.6323 298.46 79.2958 299.099 78.0984C299.733 76.9581 300.66 76.008 301.784 75.3464C302.909 74.6849 304.19 74.3361 305.494 74.3361C306.799 74.3361 308.079 74.6849 309.204 75.3464C310.328 76.008 311.255 76.9581 311.889 78.0984C312.528 79.2958 312.862 80.6323 312.862 81.9897C312.862 83.3471 312.528 84.6836 311.889 85.881C311.406 86.7269 310.761 87.469 309.99 88.0643C309.219 88.6597 308.338 89.0965 307.397 89.3497C306.457 89.6029 305.475 89.6675 304.51 89.5397C303.544 89.4118 302.614 89.0941 301.771 88.6049ZM308.387 87.1911C309.241 86.6784 309.941 85.9432 310.41 85.0638C310.896 84.112 311.15 83.0585 311.15 81.9897C311.15 80.9209 310.896 79.8674 310.41 78.9156C309.941 78.0362 309.241 77.3009 308.387 76.7883C307.74 76.4013 307.022 76.1491 306.275 76.0467C305.528 75.9444 304.769 75.994 304.042 76.1927C303.315 76.3914 302.636 76.7351 302.045 77.203C301.454 77.6709 300.964 78.2534 300.604 78.9156C300.109 79.8648 299.851 80.9194 299.851 81.9897C299.851 83.06 300.109 84.1146 300.604 85.0638C300.973 85.7168 301.468 86.2903 302.06 86.7511C302.651 87.212 303.329 87.551 304.052 87.7488C304.776 87.9466 305.531 87.9991 306.275 87.9034C307.019 87.8077 307.737 87.5656 308.387 87.1911ZM325.923 76.6456C325.128 76.2155 324.233 76.0009 323.329 76.023C322.302 76.0144 321.29 76.2785 320.398 76.7883C319.508 77.2862 318.776 78.023 318.283 78.9156C317.765 79.8571 317.492 80.9146 317.492 81.9897C317.492 83.0647 317.765 84.1223 318.283 85.0638C318.772 85.9589 319.506 86.6966 320.398 87.1911C321.288 87.7068 322.301 87.9713 323.329 87.9564C324.233 87.9785 325.128 87.7639 325.923 87.3337C326.696 86.8837 327.367 86.2786 327.895 85.5567L329.192 86.5944C328.828 87.1429 328.391 87.6402 327.895 88.0731C327.321 88.5518 326.667 88.9251 325.962 89.1756C324.927 89.5362 323.827 89.6718 322.736 89.5733C321.644 89.4749 320.586 89.1448 319.632 88.6049C318.496 87.9447 317.546 87.0076 316.87 85.881C316.187 84.6979 315.827 83.3558 315.827 81.9897C315.827 80.6236 316.187 79.2815 316.87 78.0984C317.546 76.9717 318.496 76.0346 319.632 75.3745C320.586 74.8346 321.644 74.5045 322.736 74.406C323.827 74.3076 324.927 74.4432 325.962 74.8038C326.667 75.0543 327.321 75.4275 327.895 75.9063C328.392 76.3438 328.828 76.8454 329.192 77.398L327.895 78.4227C327.367 77.7007 326.696 77.0957 325.923 76.6456ZM330.891 74.5703H342.864V76.1527H330.891V74.5703ZM337.714 89.4091H336.054V75.6598H337.714V89.4091ZM347.676 87.1651H347.377L356.276 74.5703H357.897V89.4091H356.237V76.8143H356.561L347.637 89.4091H346.028V74.5314H347.676V87.1651ZM348.623 87.6191H346.846V86.5036H348.623V87.6191ZM357.093 77.4758H355.316V76.3473H357.093V77.4758ZM181.167 116.493H178.573V112.77L179.52 113.561H167.846L168.767 112.77V116.493H166.172V110.967H181.167V116.493ZM168.196 109.916C168.474 109.343 168.662 108.731 168.754 108.1C168.878 107.268 168.935 106.426 168.922 105.584V98.7223H179.403V111.693H176.653V100.564L177.496 101.368H170.349L171.542 100.071V106.181C171.574 107.29 171.452 108.399 171.179 109.475C171.024 110.199 170.614 110.843 170.025 111.291H167.119C167.587 110.959 167.962 110.512 168.209 109.994M193.243 106.103C193.774 106.389 194.221 106.81 194.54 107.322C194.882 107.903 195.053 108.568 195.033 109.242C195.051 110.067 194.825 110.879 194.384 111.577C193.946 112.238 193.324 112.757 192.594 113.068C191.755 113.429 190.848 113.606 189.935 113.587H184.124V98.7223H189.572C190.427 98.7019 191.276 98.8656 192.063 99.2022C192.722 99.4667 193.29 99.9175 193.697 100.499C194.036 101.103 194.19 101.793 194.138 102.484C194.164 103.082 194.02 103.676 193.723 104.196C193.47 104.628 193.114 104.989 192.685 105.247C192.278 105.48 191.842 105.659 191.388 105.779L191.686 105.519C192.227 105.585 192.748 105.762 193.217 106.038M190.752 101.55C190.277 101.211 189.701 101.042 189.118 101.07H186.77V104.728H189.118C189.704 104.763 190.285 104.599 190.765 104.261C190.964 104.091 191.121 103.877 191.222 103.636C191.324 103.395 191.367 103.134 191.349 102.873C191.356 102.625 191.306 102.38 191.203 102.155C191.099 101.93 190.945 101.732 190.752 101.576M191.414 110.591C191.652 110.415 191.843 110.184 191.97 109.917C192.096 109.65 192.155 109.355 192.14 109.06C192.158 108.766 192.1 108.473 191.973 108.208C191.846 107.942 191.654 107.713 191.414 107.543C190.857 107.176 190.199 106.994 189.533 107.024H186.77V111.136H189.546C190.212 111.164 190.868 110.972 191.414 110.591ZM192.244 106.142H191.064V105.143H192.244V106.142ZM200.584 109.955H200.118L207.835 98.7093H210.572V113.548H207.835V102.302H208.328L200.546 113.548H197.835V98.7223H200.546L200.584 109.955ZM201.635 110.228H199.586V108.969H201.596L201.635 110.228ZM208.886 103.236H206.875V101.939H208.886V103.236ZM216.176 113.548H212.881L218.588 105.766L213.076 98.7093H216.344L221.883 105.869L216.176 113.548ZM225.826 107.063H220.391V104.689H225.826V107.063ZM221.805 98.7223H224.542V113.561H221.766L221.805 98.7223ZM229.99 98.7223H233.258L227.759 105.753L233.479 113.535H230.184L224.477 105.83L229.99 98.7223ZM237.669 110.967H246.242V113.561H235.762V98.7223H246.022V101.316H237.669L238.499 100.525V111.758L237.669 110.967ZM244.232 107.296H238.162V104.702H244.232V107.296ZM249.537 98.7223H252.274V113.561H249.537V98.7223ZM251.95 104.637H259.732V107.231H251.95V104.637ZM262.132 113.561H259.395V98.7223H262.132V113.561ZM268.695 109.968H268.228L276.011 98.7223H278.748V113.561H275.855V102.315H276.348L268.566 113.561H265.855V98.7223H268.566L268.695 109.968ZM269.746 110.241H267.735V108.969H269.746V110.241ZM276.997 103.249H274.947V101.952H276.958L276.997 103.249ZM284.416 110.967H292.99V113.561H282.47V98.7223H292.718V101.316H284.351L285.181 100.525V111.758L284.416 110.967ZM290.979 107.296H284.935V104.702H291.005L290.979 107.296Z" fill="white"/>
</g>
<defs>
<clipPath id="clip0_16860_31">
<rect width="358" height="129.71" fill="white"/>
</clipPath>
</defs>
</svg>
